<?xml version="1.0" encoding="UTF-8" standalone="no"?>
<svg
   xmlns:dc="http://purl.org/dc/elements/1.1/"
   xmlns:cc="http://creativecommons.org/ns#"
   xmlns:rdf="http://www.w3.org/1999/02/22-rdf-syntax-ns#"
   xmlns:svg="http://www.w3.org/2000/svg"
   xmlns="http://www.w3.org/2000/svg"
   viewBox="0 0 512 512"
   version="1.1"
   id="svg4">
  <metadata
     id="metadata10">
    <rdf:RDF>
      <cc:Work
         rdf:about="">
        <dc:format>image/svg+xml</dc:format>
        <dc:type
           rdf:resource="http://purl.org/dc/dcmitype/StillImage" />
        <dc:title></dc:title>
      </cc:Work>
    </rdf:RDF>
  </metadata>
  <defs
     id="defs8" />
  <flowRoot
     xml:space="preserve"
     id="flowRoot4540"
     style="fill:black;fill-opacity:1;stroke:none;font-family:sans-serif;font-style:normal;font-weight:normal;font-size:40px;line-height:1.25;letter-spacing:0px;word-spacing:0px"><flowRegion
       id="flowRegion4542"><rect
         id="rect4544"
         width="112.81356"
         height="114.98305"
         x="-214.77966"
         y="121.49152" /></flowRegion><flowPara
       id="flowPara4546" /></flowRoot>  <flowRoot
     xml:space="preserve"
     id="flowRoot4552"
     style="fill:black;fill-opacity:1;stroke:none;font-family:sans-serif;font-style:normal;font-weight:normal;font-size:40px;line-height:1.25;letter-spacing:0px;word-spacing:0px"><flowRegion
       id="flowRegion4554"><rect
         id="rect4556"
         width="171.38983"
         height="177.8983"
         x="-368.81357"
         y="182.23729" /></flowRegion><flowPara
       id="flowPara4558" /></flowRoot>  <flowRoot
     xml:space="preserve"
     id="flowRoot4560"
     style="fill:black;fill-opacity:1;stroke:none;font-family:sans-serif;font-style:normal;font-weight:normal;font-size:40px;line-height:1.25;letter-spacing:0px;word-spacing:0px"><flowRegion
       id="flowRegion4562"><rect
         id="rect4564"
         width="277.69492"
         height="203.93221"
         x="-475.11865"
         y="177.8983" /></flowRegion><flowPara
       id="flowPara4566" /></flowRoot>  <g
     id="layer1"
     style="display:inline" />
  <flowRoot
     xml:space="preserve"
     id="flowRoot828"
     style="fill:black;fill-opacity:1;stroke:none;font-family:sans-serif;font-style:normal;font-weight:normal;font-size:40px;line-height:1.25;letter-spacing:0px;word-spacing:0px"><flowRegion
       id="flowRegion830"><rect
         id="rect832"
         width="375.32202"
         height="321.08475"
         x="-497.89832"
         y="-6.5084743" /></flowRegion><flowPara
       id="flowPara834" /></flowRoot>  <text
     xml:space="preserve"
     style="font-style:normal;font-weight:normal;font-size:533.33331299px;line-height:1.25;font-family:sans-serif;letter-spacing:0px;word-spacing:0px;fill:#000000;fill-opacity:1;stroke:none"
     x="-600.94916"
     y="-83.525421"
     id="text949"><tspan
       id="tspan947"
       x="-600.94916"
       y="370.90164" /></text>
  <path
     style="fill:#000000;fill-opacity:1;stroke:none;stroke-width:15.71293163;stroke-linecap:round;stroke-linejoin:miter;stroke-miterlimit:4;stroke-dasharray:none;stroke-opacity:1;paint-order:normal"
     d="M 75.285156 36 C 53.520873 36 36 53.520873 36 75.285156 L 36 436.71484 C 36 458.47913 53.520873 476 75.285156 476 L 436.71484 476 C 458.47913 476 476 458.47913 476 436.71484 L 476 75.285156 C 476 53.520873 458.47913 36 436.71484 36 L 75.285156 36 z M 260.19727 71.283203 C 310.40998 71.283203 347.53602 87.169414 371.57227 118.94336 C 381.12091 136.7236 385.89453 152.52835 385.89453 166.35742 L 385.89453 183.39648 C 385.89453 202.16451 377.58094 219.94583 360.95312 236.73828 L 362.43359 259.95117 L 362.43359 261.43359 C 362.43359 270.15908 360.37751 278.30779 356.26172 285.88086 L 357.74219 285.88086 C 384.08328 275.67369 397.25391 265.5484 397.25391 255.50586 C 404.49771 246.12184 411.08302 241.42969 417.00977 241.42969 L 418.98633 241.42969 C 429.35813 241.42969 434.54297 251.63643 434.54297 272.05078 C 446.0672 280.77627 451.83008 287.93767 451.83008 293.53516 L 451.83008 299.46289 C 447.54965 306.87132 440.22337 310.57617 429.85156 310.57617 L 407.87305 308.84766 C 367.04435 326.6279 341.52553 338.89267 331.31836 345.64258 L 331.31836 350.08789 L 389.10547 374.78125 L 406.39062 371.57227 C 422.03065 374.53564 429.85156 379.63901 429.85156 386.88281 C 429.85156 393.13882 423.596 401.369 411.08398 411.57617 C 411.08398 431.00273 405.73232 440.7168 395.03125 440.7168 L 393.55078 440.7168 C 385.15456 440.7168 375.27561 431.00273 363.91602 411.57617 L 316.99609 388.61133 C 304.48407 404.90988 284.07058 413.05859 255.75391 413.05859 C 226.94333 413.05859 206.61131 404.90988 194.75781 388.61133 C 160.34976 404.90988 143.14453 415.11663 143.14453 419.23242 C 134.74831 433.55539 126.92935 440.7168 119.68555 440.7168 L 116.22852 440.7168 C 107.00913 440.7168 102.39844 431.49736 102.39844 413.05859 C 89.886417 402.02826 83.630859 392.80882 83.630859 385.40039 C 83.630859 378.32122 90.957141 373.71248 105.60938 371.57227 L 124.37695 374.78125 L 180.68164 350.08789 L 180.68164 345.64258 L 105.60938 308.84766 L 78.9375 310.57617 C 67.577903 310.57617 61.322345 305.96548 60.169922 296.74609 L 60.169922 293.53516 C 60.169922 289.0901 65.932802 281.43601 77.457031 270.57031 C 78.115559 252.13155 81.65553 242.91211 88.076172 242.91211 L 96.224609 242.91211 C 104.12694 242.91211 113.01662 252.13155 122.89453 270.57031 L 155.73828 285.88086 L 155.73828 284.39844 L 149.56641 262.91406 L 152.5293 239.94922 C 134.91369 221.67508 126.10547 194.75774 126.10547 159.19727 C 131.86758 121.33194 156.39714 94.414601 199.69531 78.445312 C 216.65239 73.670989 236.81954 71.283203 260.19727 71.283203 z M 251.30859 82.396484 C 195.4984 82.396484 158.95041 102.23388 141.66406 141.91016 C 138.37143 151.62344 136.72461 160.34824 136.72461 168.08594 C 136.72461 187.5125 142.48554 206.85721 154.00977 226.11914 L 155.73828 226.11914 L 155.73828 206.36328 C 150.63469 187.92451 148.08398 174.09634 148.08398 164.87695 C 149.89493 156.64536 151.86955 152.5293 154.00977 152.5293 L 157.2207 152.5293 L 161.91211 157.2207 L 158.70312 168.08594 L 166.60547 203.15234 L 166.60547 219.94531 L 161.91211 261.43359 L 161.91211 264.39648 C 161.91211 279.87188 174.50664 290.07862 199.69531 295.01758 C 211.05491 304.23696 216.73438 312.46909 216.73438 319.71289 L 216.73438 325.63867 L 241.67773 328.84961 L 263.65625 328.84961 L 295.01758 322.42969 C 295.01758 306.95429 311.15208 293.78367 343.41992 282.91797 C 348.85277 276.99122 351.56836 267.85325 351.56836 255.50586 L 345.14844 209.32617 L 353.29688 170.80273 L 353.29688 166.35742 L 350.08789 155.73828 L 357.74219 150.80078 C 361.85798 152.61173 363.91602 156.31463 363.91602 161.91211 L 363.91602 174.01367 L 356.26172 216.98242 L 357.74219 222.9082 C 369.43105 209.40839 375.27539 195.169 375.27539 180.1875 L 375.27539 169.56836 C 375.27539 134.99567 356.83652 109.39539 319.95898 92.767578 C 298.88611 85.853041 279.13017 82.396484 260.69141 82.396484 L 251.30859 82.396484 z M 227.84766 207.8457 C 235.42072 209.98592 239.20703 215.17075 239.20703 223.40234 C 239.20703 225.21329 239.04215 227.18986 238.71289 229.33008 C 229.49351 254.84801 217.47702 267.60742 202.66016 267.60742 L 201.17773 267.60742 C 188.33645 267.60742 178.95214 254.84801 173.02539 229.33008 C 173.02539 215.00711 191.29939 207.8457 227.84766 207.8457 z M 287.36328 207.8457 C 320.78355 209.49202 337.98682 216.98318 338.97461 230.31836 C 332.88323 255.17777 321.93552 267.60742 306.13086 267.60742 C 295.26516 267.60742 284.31744 254.84801 273.28711 229.33008 L 273.28711 228.0957 C 273.28711 214.92516 277.97927 208.17497 287.36328 207.8457 z M 417.00977 252.04883 C 412.40007 253.53051 405.81476 262.74995 397.25391 279.70703 C 356.26058 298.1458 335.76367 308.92864 335.76367 312.05664 L 331.31836 330.33203 L 332.80078 330.33203 C 378.8977 308.92989 403.92188 298.22852 407.87305 298.22852 L 433.0625 299.46289 C 438.33072 298.14584 440.96484 296.6639 440.96484 295.01758 C 429.44061 282.99945 423.67773 273.86343 423.67773 267.60742 C 422.52531 257.23562 420.3024 252.04883 417.00977 252.04883 z M 91.285156 254.02344 C 88.486415 272.29757 85.935705 281.43555 83.630859 281.43555 C 75.070004 287.52693 70.789062 292.6303 70.789062 296.74609 L 82.148438 299.46289 L 105.60938 298.22852 C 115.98118 301.19189 141.00537 312.46936 180.68164 332.06055 L 180.68164 328.84961 C 180.68164 313.37422 172.3661 303.57869 155.73828 299.46289 C 122.31802 285.79845 105.60938 273.61513 105.60938 262.91406 C 101.49358 256.98732 96.718007 254.02344 91.285156 254.02344 z M 262.66797 256.49414 C 274.02757 265.21963 279.70703 278.63659 279.70703 296.74609 C 279.70703 304.64842 276.4134 309.25912 269.82812 310.57617 L 257.72852 298.22852 L 257.72852 258.22266 L 262.66797 256.49414 z M 250.81445 257.23438 L 254.27148 258.96289 L 254.27148 298.22852 L 241.67773 310.57617 C 235.42172 308.60059 232.29297 302.91917 232.29297 293.53516 C 232.29297 276.24881 238.46706 264.14891 250.81445 257.23438 z M 186.85547 302.67383 C 190.47737 317.98459 192.28711 331.23668 192.28711 342.43164 C 192.28711 345.55965 192.12223 348.60499 191.79297 351.56836 C 199.2014 384.3301 220.52269 400.71094 255.75391 400.71094 C 291.47902 398.40609 312.87982 381.53257 319.95898 350.08789 C 319.79435 348.44157 319.71289 346.62988 319.71289 344.6543 C 319.71289 333.95323 322.01726 319.96017 326.62695 302.67383 C 320.70021 308.92984 315.43196 326.37945 310.82227 355.02539 C 298.47488 367.04352 282.75354 373.05273 263.65625 373.05273 L 249.82617 373.05273 C 218.38149 369.43083 201.67089 360.29481 199.69531 345.64258 C 198.54289 330.16718 194.2639 315.84438 186.85547 302.67383 z M 196.23828 308.84766 C 199.53092 314.93903 203.23577 329.17843 207.35156 351.56836 L 208.83203 351.56836 L 208.83203 328.84961 C 207.35034 318.4778 203.15282 311.81103 196.23828 308.84766 z M 313.78516 310.57617 C 311.64494 310.57617 308.5996 316.09076 304.64844 327.12109 L 303.16797 328.84961 L 303.16797 351.56836 C 305.63745 351.56836 307.11743 345.06646 307.61133 332.06055 L 313.78516 310.57617 z M 298.22852 328.35547 L 291.80664 330.33203 L 291.80664 342.43164 L 298.22852 339.96289 L 298.22852 328.35547 z M 215.25391 330.33203 L 215.25391 341.19727 L 219.69922 342.43164 L 219.69922 331.56641 L 215.25391 330.33203 z M 224.63672 332.06055 L 224.63672 344.4082 L 230.81055 345.64258 L 230.81055 333.54102 L 224.63672 332.06055 z M 287.36328 332.06055 L 281.18945 333.54102 L 281.18945 345.64258 L 287.85547 343.66602 L 287.36328 332.06055 z M 269.82812 333.54102 L 269.82812 348.60547 L 275.50977 348.11133 L 274.76758 333.54102 L 269.82812 333.54102 z M 235.00977 335.02344 L 234.26953 347.12305 L 241.42969 348.60547 L 241.42969 335.02344 L 235.00977 335.02344 z M 246.36914 335.02344 L 246.36914 348.60547 L 254.27148 348.60547 L 254.27148 335.02344 L 246.36914 335.02344 z M 259.21094 335.02344 L 259.21094 348.60547 L 265.38477 348.60547 L 265.38477 335.02344 L 259.21094 335.02344 z M 298.22852 346.13672 L 291.80664 347.61719 L 291.80664 359.96484 L 298.22852 358.23633 L 298.22852 346.13672 z M 213.77148 346.62891 L 213.77148 358.73047 L 219.94531 360.45898 L 219.94531 348.11133 L 213.77148 346.62891 z M 224.63672 350.08789 L 224.63672 362.68164 L 230.81055 363.91602 L 230.81055 351.56836 L 224.63672 350.08789 z M 286.86914 350.08789 L 280.69531 351.56836 L 280.69531 363.91602 L 286.86914 362.68164 L 286.86914 350.08789 z M 276.99023 352.55664 L 270.32227 354.03906 L 270.32227 366.38477 L 276.99023 364.9043 L 276.99023 352.55664 z M 235.25586 353.05078 L 235.25586 365.39844 L 241.42969 366.87891 L 241.42969 354.7793 L 235.25586 353.05078 z M 265.38477 353.29688 L 259.21094 355.02539 L 259.21094 367.12695 L 265.38477 367.12695 L 265.38477 353.29688 z M 246.36914 355.02539 L 246.36914 367.12695 L 254.27148 367.12695 L 254.27148 355.02539 L 246.36914 355.02539 z M 182.16211 361.19922 C 151.54059 377.33314 132.85537 385.40039 126.10547 385.40039 L 97.953125 384.16602 L 96.224609 385.40039 L 96.224609 390.0918 C 107.58421 399.47581 113.26367 408.11916 113.26367 416.02148 C 114.25146 425.24087 115.89828 429.85156 118.20312 429.85156 C 121.33113 429.85156 128.65741 421.28968 140.18164 404.16797 C 165.69958 391.32668 181.25799 382.52042 186.85547 377.74609 C 183.72746 371.65472 182.16211 366.13817 182.16211 361.19922 z M 329.58984 362.68164 L 325.14453 379.47461 C 362.51596 396.59632 381.20312 408.77768 381.20312 416.02148 C 381.20312 418.49096 385.31919 423.10166 393.55078 429.85156 C 397.00805 429.85156 399.72364 421.28968 401.69922 404.16797 L 417.00977 388.61133 C 416.02197 385.64795 412.97663 384.16602 407.87305 384.16602 L 384.41211 385.40039 L 329.58984 362.68164 z "
     id="rect1021-5" />
</svg>
