<?xml version="1.0" encoding="UTF-8" standalone="no"?>
<svg
   xmlns:dc="http://purl.org/dc/elements/1.1/"
   xmlns:cc="http://creativecommons.org/ns#"
   xmlns:rdf="http://www.w3.org/1999/02/22-rdf-syntax-ns#"
   xmlns:svg="http://www.w3.org/2000/svg"
   xmlns="http://www.w3.org/2000/svg"
   viewBox="0 0 512 512"
   version="1.1"
   id="svg4">
  <metadata
     id="metadata10">
    <rdf:RDF>
      <cc:Work
         rdf:about="">
        <dc:format>image/svg+xml</dc:format>
        <dc:type
           rdf:resource="http://purl.org/dc/dcmitype/StillImage" />
        <dc:title></dc:title>
      </cc:Work>
    </rdf:RDF>
  </metadata>
  <defs
     id="defs8" />
  <flowRoot
     xml:space="preserve"
     id="flowRoot4540"
     style="fill:black;fill-opacity:1;stroke:none;font-family:sans-serif;font-style:normal;font-weight:normal;font-size:40px;line-height:1.25;letter-spacing:0px;word-spacing:0px"><flowRegion
       id="flowRegion4542"><rect
         id="rect4544"
         width="112.81356"
         height="114.98305"
         x="-214.77966"
         y="121.49152" /></flowRegion><flowPara
       id="flowPara4546" /></flowRoot>  <flowRoot
     xml:space="preserve"
     id="flowRoot4552"
     style="fill:black;fill-opacity:1;stroke:none;font-family:sans-serif;font-style:normal;font-weight:normal;font-size:40px;line-height:1.25;letter-spacing:0px;word-spacing:0px"><flowRegion
       id="flowRegion4554"><rect
         id="rect4556"
         width="171.38983"
         height="177.8983"
         x="-368.81357"
         y="182.23729" /></flowRegion><flowPara
       id="flowPara4558" /></flowRoot>  <flowRoot
     xml:space="preserve"
     id="flowRoot4560"
     style="fill:black;fill-opacity:1;stroke:none;font-family:sans-serif;font-style:normal;font-weight:normal;font-size:40px;line-height:1.25;letter-spacing:0px;word-spacing:0px"><flowRegion
       id="flowRegion4562"><rect
         id="rect4564"
         width="277.69492"
         height="203.93221"
         x="-475.11865"
         y="177.8983" /></flowRegion><flowPara
       id="flowPara4566" /></flowRoot>  <g
     id="layer1"
     style="display:inline" />
  <flowRoot
     xml:space="preserve"
     id="flowRoot828"
     style="fill:black;fill-opacity:1;stroke:none;font-family:sans-serif;font-style:normal;font-weight:normal;font-size:40px;line-height:1.25;letter-spacing:0px;word-spacing:0px"><flowRegion
       id="flowRegion830"><rect
         id="rect832"
         width="375.32202"
         height="321.08475"
         x="-497.89832"
         y="-6.5084743" /></flowRegion><flowPara
       id="flowPara834" /></flowRoot>  <text
     xml:space="preserve"
     style="font-style:normal;font-weight:normal;font-size:533.33331299px;line-height:1.25;font-family:sans-serif;letter-spacing:0px;word-spacing:0px;fill:#000000;fill-opacity:1;stroke:none"
     x="-600.94916"
     y="-83.525421"
     id="text949"><tspan
       id="tspan947"
       x="-600.94916"
       y="370.90164" /></text>
  <g
     id="g950">
    <rect
       ry="39.285709"
       y="39.254242"
       x="35.999981"
       height="440"
       width="440"
       id="rect1021-6-3"
       style="fill:none;fill-opacity:1;stroke:#0d0000;stroke-width:15.71293163;stroke-linecap:round;stroke-linejoin:miter;stroke-miterlimit:4;stroke-dasharray:none;stroke-opacity:1;paint-order:normal" />
    <g
       aria-label="☠"
       style="font-style:normal;font-weight:normal;font-size:505.74902344px;line-height:1.25;font-family:sans-serif;letter-spacing:0px;word-spacing:0px;fill:#000000;fill-opacity:1;stroke:none;stroke-width:11;stroke-miterlimit:4;stroke-dasharray:none;stroke-opacity:1"
       id="text953-3-2-6-6">
      <path
         d="m 260.19809,74.537304 q 75.31907,0 111.37345,47.660916 14.32297,26.67036 14.32297,47.41397 v 17.0394 q 0,28.15204 -24.94173,53.34072 l 1.48169,23.21309 v 1.48168 q 0,13.08823 -6.1737,24.44783 h 1.48169 q 39.51164,-15.31076 39.51164,-30.37457 10.86571,-14.07603 19.75582,-14.07603 h 1.97559 q 15.55771,0 15.55771,30.62153 17.28634,13.08823 17.28634,21.48445 v 5.92675 q -6.42064,11.11265 -21.97835,11.11265 l -21.97835,-1.72864 q -61.24305,26.67036 -76.55381,36.79522 v 4.44506 l 57.78578,24.69478 17.28634,-3.21032 q 23.46004,4.44506 23.46004,15.31076 0,9.38401 -18.76803,24.69477 0,29.13984 -16.05161,29.13984 h -1.48168 q -12.59434,0 -29.63373,-29.13984 l -46.92008,-22.96614 q -18.76803,24.44783 -61.24305,24.44783 -43.21585,0 -60.99609,-24.44783 -51.61209,24.44783 -51.61209,30.62153 -12.59433,21.48445 -23.46003,21.48445 h -3.45727 q -13.82908,0 -13.82908,-27.65815 -18.768028,-16.5455 -18.768028,-27.65815 0,-10.61875 21.978348,-13.82907 l 18.76803,3.21032 56.30409,-24.69478 v -4.44506 l -75.07212,-36.79522 -26.670356,1.72864 q -17.039396,0 -18.76803,-13.82908 v -3.21032 q 0,-6.66759 17.286344,-22.96614 Q 78.444539,246.166 88.075501,246.166 h 8.149277 q 11.853492,0 26.670362,27.65815 l 32.84405,15.31076 v -1.48168 l -6.17369,-21.48446 2.96337,-22.96614 q -26.42341,-27.4112 -26.42341,-80.75192 8.64317,-56.79799 73.59043,-80.751921 25.43562,-7.161485 60.5022,-7.161485 z M 136.72421,171.34083 q 0,29.13983 17.28634,58.03272 h 1.72864 v -19.75582 q -7.65538,-27.65815 -7.65538,-41.48722 2.71642,-12.34739 5.92674,-12.34739 h 3.21033 l 4.692,4.69201 -3.21032,10.8657 7.90233,35.06658 v 16.79245 l -4.69201,41.48722 v 2.96338 q 0,23.21309 37.78301,30.62152 17.0394,13.82907 17.0394,24.69478 v 5.92674 l 24.94172,3.21032 h 21.97835 l 31.36237,-6.42064 q 0,-23.21309 48.40176,-39.51164 8.14928,-8.89012 8.14928,-27.4112 l -6.42064,-46.17924 8.14927,-38.52385 v -4.44506 l -3.21032,-10.61875 7.65538,-4.93896 q 6.1737,2.71643 6.1737,11.11265 v 12.10044 l -7.65539,42.96892 1.48169,5.92674 q 17.53329,-20.24971 17.53329,-42.72196 v -10.61876 q 0,-51.85903 -55.3163,-76.80075 -31.60931,-10.371807 -59.26746,-10.371807 h -9.38402 q -83.71529,0 -109.6448,59.514407 -4.93896,14.56992 -4.93896,26.17647 z m 91.12373,39.75859 q 11.35959,3.21032 11.35959,15.55771 0,2.71642 -0.49389,5.92674 -13.82908,38.27691 -36.05438,38.27691 h -1.48168 q -19.26193,0 -28.15205,-38.27691 0,-21.48445 54.82241,-21.48445 z m 59.51441,0 q 50.13039,2.46948 51.61208,22.47224 -9.13707,37.28912 -32.84405,37.28912 -16.29855,0 -32.84405,-38.27691 0,-0.74084 0,-1.23474 0,-19.75582 14.07602,-20.24971 z m 43.9567,122.48609 h 1.48169 q 69.14537,-32.10321 75.07212,-32.10321 l 25.18867,1.23474 q 7.90233,-1.97558 7.90233,-4.44506 -17.28635,-18.02719 -17.28635,-27.4112 -1.72863,-15.55771 -6.66759,-15.55771 -6.91453,2.22253 -19.75582,27.65815 -61.48999,27.65815 -61.48999,32.35016 z M 91.285822,257.27865 q -4.198112,27.4112 -7.65538,27.4112 -12.841284,9.13707 -12.841284,15.31076 l 11.359597,2.71643 23.460035,-1.23474 q 15.55771,4.44506 75.07212,33.83184 v -3.21032 q 0,-23.21309 -24.94172,-29.38678 -50.1304,-20.49667 -50.1304,-36.54827 -6.173691,-8.89012 -14.322968,-8.89012 z m 159.528258,3.21032 3.45727,1.72864 v 39.26469 l -12.59434,12.34739 q -9.38401,-2.96337 -9.38401,-17.0394 0,-25.92951 18.52108,-36.30132 z m 11.85349,-0.74084 q 17.0394,13.08823 17.0394,40.25248 0,11.8535 -9.87791,13.82908 L 257.72862,301.4823 v -40.00554 z m -70.87401,95.07489 q 11.11265,49.1426 63.95947,49.1426 53.58767,-3.45727 64.20642,-50.62429 -0.24694,-2.46948 -0.24694,-5.43285 0,-16.0516 6.91453,-41.98112 -8.89012,9.38402 -15.80465,52.35293 -18.52109,18.02718 -47.16703,18.02718 h -13.82907 q -47.16703,-5.43285 -50.1304,-27.4112 -1.72863,-23.21309 -12.84128,-42.96891 5.43285,22.96614 5.43285,39.75859 0,4.69201 -0.4939,9.13707 z m 4.44506,-42.72197 q 4.93896,9.13707 11.11265,42.72197 h 1.48169 v -22.7192 q -2.22253,-15.55771 -12.59434,-20.00277 z m 106.92839,20.00277 v 22.7192 q 3.70421,0 4.44505,-19.50888 l 6.1737,-21.48445 q -3.21032,0 -9.13707,16.5455 z m -87.91341,1.48169 v 10.8657 l 4.44506,1.23474 v -10.8657 z m 76.55381,0 v 12.10044 l 6.42064,-2.46948 v -11.60654 z m -67.16979,1.72863 v 12.34739 l 6.17369,1.23474 v -12.10044 z m 56.55103,1.48169 v 12.10044 l 6.66759,-1.97558 -0.49389,-11.60655 z m -11.35959,0 v 15.06381 l 5.6798,-0.49389 -0.74085,-14.56992 z m -23.46004,1.48169 v 13.58212 h 7.90233 v -13.58212 z m 12.84128,0 v 13.58212 h 6.1737 v -13.58212 z m -34.57268,15.06381 v 12.59434 l 6.17369,1.23474 v -12.34739 z m 34.57268,4.93896 v 12.10044 h 6.1737 v -13.82908 z m -12.84128,0 v 12.10044 h 7.90233 v -12.10044 z m -120.26356,30.37457 -28.152048,-1.23474 -1.728634,1.23474 v 4.69201 q 17.039392,14.07602 17.039392,25.92951 1.48169,13.82908 4.93896,13.82908 4.69201,0 21.97835,-25.68257 38.2769,-19.26192 46.67313,-26.42341 -4.69201,-9.13707 -4.69201,-16.5455 -45.93228,24.20088 -56.05714,24.20088 z m 203.48496,-22.71919 -4.44506,16.79245 q 56.05714,25.68256 56.05714,36.54826 0,3.70422 12.34739,13.82908 5.1859,0 8.14927,-25.68257 l 15.31076,-15.55771 q -1.48168,-4.44506 -9.13706,-4.44506 l -23.46004,1.23474 z m -94.581,-27.65815 -0.74084,12.10044 7.16148,1.48168 v -13.58212 z m 0.24695,18.02718 v 12.34739 l 6.17369,1.48169 v -12.10044 z m -21.48446,-6.42064 v 12.10044 l 6.1737,1.72864 v -12.34739 z m 56.55104,7.40844 v 12.34738 l 6.66759,-1.48168 v -12.34739 z m 10.37181,-2.46948 v 12.34739 l 6.17369,-1.23474 v -12.59434 z m 11.11265,-3.95117 v 12.34739 l 6.42064,-1.72863 v -12.10044 z"
         style="fill:#000000;fill-opacity:1;stroke:none;stroke-width:11;stroke-miterlimit:4;stroke-dasharray:none;stroke-opacity:1"
         id="path1036" />
    </g>
  </g>
</svg>
