<?xml version="1.0" encoding="UTF-8" standalone="no"?>
<svg
   xmlns:dc="http://purl.org/dc/elements/1.1/"
   xmlns:cc="http://creativecommons.org/ns#"
   xmlns:rdf="http://www.w3.org/1999/02/22-rdf-syntax-ns#"
   xmlns:svg="http://www.w3.org/2000/svg"
   xmlns="http://www.w3.org/2000/svg"
   xmlns:sodipodi="http://sodipodi.sourceforge.net/DTD/sodipodi-0.dtd"
   xmlns:inkscape="http://www.inkscape.org/namespaces/inkscape"
   id="svg4"
   version="1.1"
   viewBox="0 0 512 512"
   sodipodi:docname="swords-10.svg"
   inkscape:version="0.92.4 5da689c313, 2019-01-14">
  <sodipodi:namedview
     pagecolor="#ffffff"
     bordercolor="#666666"
     borderopacity="1"
     objecttolerance="10"
     gridtolerance="10"
     guidetolerance="10"
     inkscape:pageopacity="0"
     inkscape:pageshadow="2"
     inkscape:window-width="2556"
     inkscape:window-height="1037"
     id="namedview92"
     showgrid="false"
     inkscape:zoom="0.16296602"
     inkscape:cx="-751.8556"
     inkscape:cy="-307.55312"
     inkscape:window-x="0"
     inkscape:window-y="841"
     inkscape:window-maximized="0"
     inkscape:current-layer="svg4" />
  <metadata
     id="metadata10">
    <rdf:RDF>
      <cc:Work
         rdf:about="">
        <dc:format>image/svg+xml</dc:format>
        <dc:type
           rdf:resource="http://purl.org/dc/dcmitype/StillImage" />
        <dc:title />
      </cc:Work>
    </rdf:RDF>
  </metadata>
  <defs
     id="defs8" />
  <flowRoot
     style="fill:black;fill-opacity:1;stroke:none;font-family:sans-serif;font-style:normal;font-weight:normal;font-size:40px;line-height:1.25;letter-spacing:0px;word-spacing:0px"
     id="flowRoot4540"
     xml:space="preserve"><flowRegion
       id="flowRegion4542"><rect
         y="121.49152"
         x="-214.77966"
         height="114.98305"
         width="112.81356"
         id="rect4544" /></flowRegion><flowPara
       id="flowPara4546" /></flowRoot>  <flowRoot
     style="fill:black;fill-opacity:1;stroke:none;font-family:sans-serif;font-style:normal;font-weight:normal;font-size:40px;line-height:1.25;letter-spacing:0px;word-spacing:0px"
     id="flowRoot4552"
     xml:space="preserve"><flowRegion
       id="flowRegion4554"><rect
         y="182.23729"
         x="-368.81357"
         height="177.8983"
         width="171.38983"
         id="rect4556" /></flowRegion><flowPara
       id="flowPara4558" /></flowRoot>  <flowRoot
     style="fill:black;fill-opacity:1;stroke:none;font-family:sans-serif;font-style:normal;font-weight:normal;font-size:40px;line-height:1.25;letter-spacing:0px;word-spacing:0px"
     id="flowRoot4560"
     xml:space="preserve"><flowRegion
       id="flowRegion4562"><rect
         y="177.8983"
         x="-475.11865"
         height="203.93221"
         width="277.69492"
         id="rect4564" /></flowRegion><flowPara
       id="flowPara4566" /></flowRoot>  <g
     style="display:inline"
     id="layer1" />
  <flowRoot
     style="fill:black;fill-opacity:1;stroke:none;font-family:sans-serif;font-style:normal;font-weight:normal;font-size:40px;line-height:1.25;letter-spacing:0px;word-spacing:0px"
     id="flowRoot828"
     xml:space="preserve"><flowRegion
       id="flowRegion830"><rect
         y="-6.5084743"
         x="-497.89832"
         height="321.08475"
         width="375.32202"
         id="rect832" /></flowRegion><flowPara
       id="flowPara834" /></flowRoot>  <text
     id="text949"
     y="-83.525421"
     x="-600.94916"
     style="font-style:normal;font-weight:normal;font-size:533.33331299px;line-height:1.25;font-family:sans-serif;letter-spacing:0px;word-spacing:0px;fill:#000000;fill-opacity:1;stroke:none"
     xml:space="preserve"><tspan
       y="370.90164"
       x="-600.94916"
       id="tspan947" /></text>
  <path
     id="rect1021-6-7"
     d="M 79.2852,31.99995 C 57.5209,31.99995 40,49.52082 40,71.28511 V 432.7148 C 40,454.4791 57.5209,472 79.2852,472 H 440.7149 C 462.4792,472 480,454.4791 480,432.7148 V 71.28511 C 480,49.52082 462.4792,31.99995 440.7149,31.99995 Z m 12.8262,12.46094 c 5.5867,0.97546 8.425,4.65615 8.5136,11.04101 l 20.75,22.34571 c 9.2226,-4.96601 17.9139,-7.80229 26.0723,-8.51172 l 5.0547,8.77734 c -8.9565,1.50754 -16.3621,4.43404 -22.2148,8.7793 l 32.1914,38.57617 32.455,-38.57617 c -5.8528,-4.34526 -13.3004,-7.27176 -22.3457,-8.7793 l 5.1875,-8.77734 c 8.0698,0.70943 16.6708,3.54571 25.8047,8.51172 L 224.4649,55.5019 c 0.3547,-7.00561 3.6784,-10.6863 9.9746,-11.04101 3.8132,0.0887 7.0506,0.88699 9.7109,2.39453 2.6604,1.50754 4.257,4.12315 4.7891,7.84766 -0.1774,5.67543 -3.0156,8.64607 -8.5137,8.9121 l -20.75,24.20899 c 8.2471,6.47354 13.4784,14.89803 15.6953,25.27344 h -12.1035 c -2.3943,-5.32073 -6.9174,-10.59609 -13.5683,-15.82813 l -36.9786,40.4375 71.8282,85.66211 4.3906,19.82031 -86.4609,-94.44336 -86.1973,94.44336 4.2578,-19.82031 71.9629,-85.66211 -36.9805,-40.4375 c -6.6509,5.23204 -11.1721,10.5074 -13.5664,15.82813 H 89.7168 C 92.0225,102.7222 97.2979,94.29771 105.545,87.82417 L 84.795,63.61518 c -5.5868,-0.26603 -8.425,-3.76823 -8.5137,-10.50781 0.3547,-3.19243 2.174,-5.45497 5.4551,-6.78515 3.3698,-1.24151 6.8278,-1.86133 10.375,-1.86133 z m 316.8828,5.95703 c 16.4926,0 28.6108,7.50998 36.3535,22.52734 7.7427,15.01736 11.6152,38.62717 11.6152,70.83203 0,32.20486 -3.9033,55.90278 -11.7089,71.09375 -7.8057,15.19098 -19.8931,22.78711 -36.2598,22.78711 -16.3667,0 -28.4214,-7.55208 -36.1641,-22.65625 -7.7427,-15.10416 -11.6133,-38.75803 -11.6133,-70.96289 0,-32.20486 3.8706,-55.86067 11.6133,-70.96484 7.7427,-15.10417 19.7974,-22.65625 36.1641,-22.65625 z m -116.2344,2.99609 h 12.5586 V 233.62104 H 288.2286 V 104.84565 H 256.5957 V 88.04878 c 8.5611,-0.69445 15.014,-2.08268 19.3575,-4.16602 4.4064,-2.08333 7.836,-5.25238 10.291,-9.50586 2.455,-4.25347 4.6271,-11.24066 6.5156,-20.96289 z M 408.9942,71.2519 c -10.0718,0 -17.4991,5.85938 -22.2832,17.57813 -4.7841,11.71875 -7.1758,30.12218 -7.1758,55.20898 0,25.08681 2.3917,43.48828 7.1758,55.20703 4.7841,11.71875 12.2114,17.57813 22.2832,17.57813 10.1977,0 17.6577,-5.85938 22.3789,-17.57813 4.7841,-11.71875 7.1758,-30.20833 7.1758,-55.46875 0,-25.0868 -2.3917,-43.44618 -7.1758,-55.07812 C 426.6519,77.06723 419.1919,71.2519 408.9942,71.2519 Z M 289.2383,246.95698 c 5.5868,0.97547 8.425,4.65615 8.5137,11.04102 l 20.75,22.3457 c 9.2226,-4.96601 17.9138,-7.80229 26.0723,-8.51172 l 5.0547,8.7793 c -8.9566,1.50754 -16.3621,4.43209 -22.2149,8.77734 l 32.1914,38.57617 32.4551,-38.57617 c -5.8528,-4.34525 -13.3005,-7.2698 -22.3457,-8.77734 l 5.1875,-8.7793 c 8.0697,0.70943 16.6708,3.54571 25.8047,8.51172 l 20.8847,-22.3457 c 0.3548,-7.00562 3.6785,-10.6863 9.9747,-11.04102 3.8131,0.0887 7.0505,0.88699 9.7109,2.39453 2.6603,1.50754 4.257,4.12315 4.7891,7.84766 -0.1774,5.67543 -3.0156,8.64607 -8.5137,8.91211 l -20.75,24.20898 c 8.2471,6.47355 13.4783,14.89803 15.6953,25.27344 h -12.1035 c -2.3943,-5.32072 -6.9175,-10.59608 -13.5684,-15.82813 l -36.9785,40.4375 71.8281,85.66211 4.3907,19.82032 -86.461,-94.44336 -86.1973,94.44336 4.2579,-19.82032 71.9629,-85.66211 -36.9805,-40.4375 c -6.6509,5.23205 -11.1721,10.50741 -13.5664,15.82813 h -12.2383 c 2.3056,-10.37541 7.583,-18.79989 15.8301,-25.27344 l -20.752,-24.20898 c -5.5867,-0.26604 -8.425,-3.76823 -8.5137,-10.50781 0.3548,-3.19244 2.174,-5.45498 5.4551,-6.78516 3.3698,-1.2415 6.8279,-1.86133 10.375,-1.86133 z m -199.6015,1.71094 c 5.5867,0.97546 8.423,4.65615 8.5117,11.04101 l 20.7519,22.34766 c 9.2226,-4.96601 17.9119,-7.80424 26.0703,-8.51367 l 5.0547,8.7793 c -8.9565,1.50753 -16.3601,4.43404 -22.2129,8.77929 l 32.1895,38.57617 32.457,-38.57617 c -5.8528,-4.34525 -13.3024,-7.27176 -22.3476,-8.77929 l 5.1875,-8.7793 c 8.0697,0.70943 16.6727,3.54766 25.8066,8.51367 l 20.8828,-22.34766 c 0.3547,-7.00561 3.6804,-10.6863 9.9766,-11.04101 3.8132,0.0887 7.0506,0.88699 9.7109,2.39453 2.6604,1.50754 4.257,4.1251 4.7891,7.84961 -0.1774,5.67544 -3.0156,8.64607 -8.5137,8.91211 l -20.7519,24.20898 c 8.2471,6.47355 13.4803,14.89803 15.6972,25.27344 h -12.1054 c -2.3944,-5.32072 -6.9155,-10.59803 -13.5664,-15.83008 l -36.9805,40.4375 71.8301,85.66409 4.3906,19.8203 -86.4629,-94.44337 -86.1953,94.44337 4.2558,-19.8203 71.9629,-85.66409 -36.9785,-40.4375 c -6.6509,5.23205 -11.174,10.50936 -13.5683,15.83008 H 87.2422 c 2.3057,-10.37541 7.581,-18.79989 15.8282,-25.27344 l -20.75,-24.20898 c -5.5868,-0.26604 -8.425,-3.77019 -8.5137,-10.50977 0.3547,-3.19243 2.172,-5.45302 5.4531,-6.7832 3.3698,-1.2415 6.8298,-1.86328 10.377,-1.86328 z"
     style="fill:#000000;fill-opacity:1;stroke:none;stroke-width:15.71293163;stroke-linecap:round;stroke-linejoin:miter;stroke-miterlimit:4;stroke-dasharray:none;stroke-opacity:1;paint-order:normal" />
</svg>
