<?xml version="1.0" encoding="UTF-8" standalone="no"?>
<svg
   xmlns:dc="http://purl.org/dc/elements/1.1/"
   xmlns:cc="http://creativecommons.org/ns#"
   xmlns:rdf="http://www.w3.org/1999/02/22-rdf-syntax-ns#"
   xmlns:svg="http://www.w3.org/2000/svg"
   xmlns="http://www.w3.org/2000/svg"
   xmlns:sodipodi="http://sodipodi.sourceforge.net/DTD/sodipodi-0.dtd"
   xmlns:inkscape="http://www.inkscape.org/namespaces/inkscape"
   id="svg4"
   version="1.1"
   viewBox="0 0 512 512"
   sodipodi:docname="swords-12.svg"
   inkscape:version="0.92.4 5da689c313, 2019-01-14">
  <sodipodi:namedview
     pagecolor="#ffffff"
     bordercolor="#666666"
     borderopacity="1"
     objecttolerance="10"
     gridtolerance="10"
     guidetolerance="10"
     inkscape:pageopacity="0"
     inkscape:pageshadow="2"
     inkscape:window-width="2556"
     inkscape:window-height="1037"
     id="namedview90"
     showgrid="false"
     inkscape:zoom="0.16296602"
     inkscape:cx="-2211.2353"
     inkscape:cy="-573.54844"
     inkscape:window-x="0"
     inkscape:window-y="841"
     inkscape:window-maximized="0"
     inkscape:current-layer="g1508" />
  <metadata
     id="metadata10">
    <rdf:RDF>
      <cc:Work
         rdf:about="">
        <dc:format>image/svg+xml</dc:format>
        <dc:type
           rdf:resource="http://purl.org/dc/dcmitype/StillImage" />
        <dc:title />
      </cc:Work>
    </rdf:RDF>
  </metadata>
  <defs
     id="defs8" />
  <flowRoot
     style="fill:black;fill-opacity:1;stroke:none;font-family:sans-serif;font-style:normal;font-weight:normal;font-size:40px;line-height:1.25;letter-spacing:0px;word-spacing:0px"
     id="flowRoot4540"
     xml:space="preserve"><flowRegion
       id="flowRegion4542"><rect
         y="121.49152"
         x="-214.77966"
         height="114.98305"
         width="112.81356"
         id="rect4544" /></flowRegion><flowPara
       id="flowPara4546" /></flowRoot>  <flowRoot
     style="fill:black;fill-opacity:1;stroke:none;font-family:sans-serif;font-style:normal;font-weight:normal;font-size:40px;line-height:1.25;letter-spacing:0px;word-spacing:0px"
     id="flowRoot4552"
     xml:space="preserve"><flowRegion
       id="flowRegion4554"><rect
         y="182.23729"
         x="-368.81357"
         height="177.8983"
         width="171.38983"
         id="rect4556" /></flowRegion><flowPara
       id="flowPara4558" /></flowRoot>  <flowRoot
     style="fill:black;fill-opacity:1;stroke:none;font-family:sans-serif;font-style:normal;font-weight:normal;font-size:40px;line-height:1.25;letter-spacing:0px;word-spacing:0px"
     id="flowRoot4560"
     xml:space="preserve"><flowRegion
       id="flowRegion4562"><rect
         y="177.8983"
         x="-475.11865"
         height="203.93221"
         width="277.69492"
         id="rect4564" /></flowRegion><flowPara
       id="flowPara4566" /></flowRoot>  <g
     style="display:inline"
     id="layer1" />
  <flowRoot
     style="fill:black;fill-opacity:1;stroke:none;font-family:sans-serif;font-style:normal;font-weight:normal;font-size:40px;line-height:1.25;letter-spacing:0px;word-spacing:0px"
     id="flowRoot828"
     xml:space="preserve"><flowRegion
       id="flowRegion830"><rect
         y="-6.5084743"
         x="-497.89832"
         height="321.08475"
         width="375.32202"
         id="rect832" /></flowRegion><flowPara
       id="flowPara834" /></flowRoot>  <text
     id="text949"
     y="-83.525421"
     x="-600.94916"
     style="font-style:normal;font-weight:normal;font-size:533.33331299px;line-height:1.25;font-family:sans-serif;letter-spacing:0px;word-spacing:0px;fill:#000000;fill-opacity:1;stroke:none"
     xml:space="preserve"><tspan
       y="370.90164"
       x="-600.94916"
       id="tspan947" /></text>
  <g
     id="g1508">
    <path
       id="rect1021-6-7-6-7"
       d="M 79.285156 32 C 57.520873 32 40 49.520873 40 71.285156 L 40 432.71484 C 40 454.47913 57.520873 472 79.285156 472 L 440.71484 472 C 462.47913 472 480 454.47913 480 432.71484 L 480 71.285156 C 480 49.520873 462.47913 32 440.71484 32 L 79.285156 32 z M 285.29688 43.822266 C 290.88362 44.797731 293.72187 48.478416 293.81055 54.863281 L 314.56055 77.208984 C 323.78313 72.242978 332.47437 69.406695 340.63281 68.697266 L 345.6875 77.474609 C 336.73095 78.982147 329.32545 81.908651 323.47266 86.253906 L 355.66406 124.83008 L 388.11914 86.253906 C 382.26635 81.908651 374.81866 78.982147 365.77344 77.474609 L 370.96094 68.697266 C 379.0307 69.406695 387.63175 72.242978 396.76562 77.208984 L 417.65039 54.863281 C 418.00511 47.857665 421.33077 44.17698 427.62695 43.822266 C 431.44014 43.910944 434.67558 44.709259 437.33594 46.216797 C 439.9963 47.724335 441.59293 50.339948 442.125 54.064453 C 441.94764 59.739889 439.10941 62.710529 433.61133 62.976562 L 412.86133 87.185547 C 421.10845 93.659091 426.33967 102.08358 428.55664 112.45898 L 416.45312 112.45898 C 414.05881 107.13826 409.53567 101.8629 402.88477 96.630859 L 365.90625 137.06836 L 437.73633 222.73047 L 442.125 242.55078 L 355.66406 148.10742 L 269.46875 242.55078 L 273.72461 222.73047 L 345.6875 137.06836 L 308.70898 96.630859 C 302.05808 101.8629 297.53495 107.13826 295.14062 112.45898 L 282.90234 112.45898 C 285.20799 102.08358 290.4853 93.659091 298.73242 87.185547 L 277.98047 62.976562 C 272.39371 62.710527 269.55743 59.20833 269.46875 52.46875 C 269.82346 49.276317 271.64076 47.013774 274.92188 45.683594 C 278.29167 44.442092 281.74973 43.822266 285.29688 43.822266 z M 92.111328 44.460938 C 97.698085 45.436402 100.53632 49.117088 100.625 55.501953 L 121.375 77.847656 C 130.59758 72.88165 139.28883 70.043414 147.44727 69.333984 L 152.50195 78.113281 C 143.54541 79.620819 136.1399 82.547322 130.28711 86.892578 L 162.47852 125.46875 L 194.93359 86.892578 C 189.0808 82.547322 181.63312 79.620819 172.58789 78.113281 L 177.77539 69.333984 C 185.84515 70.043414 194.44617 72.88165 203.58008 77.847656 L 224.46484 55.501953 C 224.81956 48.496337 228.14327 44.815651 234.43945 44.460938 C 238.25264 44.549616 241.49003 45.347931 244.15039 46.855469 C 246.81075 48.363006 248.40738 50.97862 248.93945 54.703125 C 248.7621 60.378561 245.92386 63.349198 240.42578 63.615234 L 219.67578 87.824219 C 227.9229 94.297763 233.15413 102.72225 235.37109 113.09766 L 223.26758 113.09766 C 220.87325 107.77693 216.35012 102.50157 209.69922 97.269531 L 172.7207 137.70703 L 244.54883 223.36914 L 248.93945 243.18945 L 162.47852 148.74609 L 76.28125 243.18945 L 80.539062 223.36914 L 152.50195 137.70703 L 115.52148 97.269531 C 108.87058 102.50157 104.3494 107.77693 101.95508 113.09766 L 89.716797 113.09766 C 92.022443 102.72225 97.297806 94.297763 105.54492 87.824219 L 84.794922 63.615234 C 79.208165 63.349198 76.369929 59.847002 76.28125 53.107422 C 76.635965 49.914989 78.455217 47.652446 81.736328 46.322266 C 85.106118 45.080764 88.564181 44.460937 92.111328 44.460938 z M 289.23828 246.95703 C 294.82504 247.9325 297.66327 251.61318 297.75195 257.99805 L 318.50195 280.34375 C 327.72454 275.37774 336.41578 272.54146 344.57422 271.83203 L 349.62891 280.61133 C 340.67236 282.11887 333.26686 285.04342 327.41406 289.38867 L 359.60547 327.96484 L 392.06055 289.38867 C 386.20775 285.04342 378.76007 282.11887 369.71484 280.61133 L 374.90234 271.83203 C 382.9721 272.54146 391.57313 275.37774 400.70703 280.34375 L 421.5918 257.99805 C 421.94651 250.99243 425.27022 247.31175 431.56641 246.95703 C 435.37959 247.04571 438.61698 247.84402 441.27734 249.35156 C 443.9377 250.8591 445.53433 253.47471 446.06641 257.19922 C 445.88905 262.87465 443.05081 265.84529 437.55273 266.11133 L 416.80273 290.32031 C 425.04985 296.79386 430.28108 305.21834 432.49805 315.59375 L 420.39453 315.59375 C 418.00021 310.27303 413.47707 304.99767 406.82617 299.76562 L 369.84766 340.20312 L 441.67578 425.86523 L 446.06641 445.68555 L 359.60547 351.24219 L 273.4082 445.68555 L 277.66602 425.86523 L 349.62891 340.20312 L 312.64844 299.76562 C 305.99754 304.99768 301.47636 310.27303 299.08203 315.59375 L 286.84375 315.59375 C 289.1494 305.21834 294.42671 296.79386 302.67383 290.32031 L 281.92188 266.11133 C 276.33512 265.84529 273.49688 262.3431 273.4082 255.60352 C 273.76292 252.41108 275.58217 250.14854 278.86328 248.81836 C 282.23307 247.57686 285.69113 246.95703 289.23828 246.95703 z M 89.636719 248.66797 C 95.223476 249.64343 98.059759 253.32412 98.148438 259.70898 L 118.90039 282.05664 C 128.12297 277.09063 136.81226 274.2524 144.9707 273.54297 L 150.02539 282.32227 C 141.06884 283.8298 133.66529 286.75631 127.8125 291.10156 L 160.00195 329.67773 L 192.45898 291.10156 C 186.60619 286.75631 179.15655 283.8298 170.11133 282.32227 L 175.29883 273.54297 C 183.36859 274.2524 191.97156 277.09063 201.10547 282.05664 L 221.98828 259.70898 C 222.343 252.70337 225.66866 249.02268 231.96484 248.66797 C 235.77803 248.75665 239.01542 249.55496 241.67578 251.0625 C 244.33614 252.57004 245.93277 255.1876 246.46484 258.91211 C 246.28749 264.58755 243.44925 267.55818 237.95117 267.82422 L 217.19922 292.0332 C 225.44634 298.50675 230.67952 306.93123 232.89648 317.30664 L 220.79102 317.30664 C 218.39669 311.98592 213.87551 306.70861 207.22461 301.47656 L 170.24414 341.91406 L 242.07422 427.57812 L 246.46484 447.39844 L 160.00195 352.95508 L 73.806641 447.39844 L 78.0625 427.57812 L 150.02539 341.91406 L 113.04688 301.47656 C 106.39597 306.70861 101.87284 311.98592 99.478516 317.30664 L 87.242188 317.30664 C 89.547833 306.93123 94.823195 298.50675 103.07031 292.0332 L 82.320312 267.82422 C 76.733555 267.55818 73.895319 264.05403 73.806641 257.31445 C 74.161355 254.12202 75.978654 251.86143 79.259766 250.53125 C 82.629556 249.28975 86.089571 248.66797 89.636719 248.66797 z "
       style="fill:#000000;fill-opacity:1;stroke:none;stroke-width:15.71293163;stroke-linecap:round;stroke-linejoin:miter;stroke-miterlimit:4;stroke-dasharray:none;stroke-opacity:1;paint-order:normal" />
  </g>
</svg>
