<?xml version="1.0" encoding="UTF-8" standalone="no"?>
<svg
   xmlns:dc="http://purl.org/dc/elements/1.1/"
   xmlns:cc="http://creativecommons.org/ns#"
   xmlns:rdf="http://www.w3.org/1999/02/22-rdf-syntax-ns#"
   xmlns:svg="http://www.w3.org/2000/svg"
   xmlns="http://www.w3.org/2000/svg"
   id="svg4"
   version="1.1"
   viewBox="0 0 512 512">
  <metadata
     id="metadata10">
    <rdf:RDF>
      <cc:Work
         rdf:about="">
        <dc:format>image/svg+xml</dc:format>
        <dc:type
           rdf:resource="http://purl.org/dc/dcmitype/StillImage" />
        <dc:title></dc:title>
      </cc:Work>
    </rdf:RDF>
  </metadata>
  <defs
     id="defs8" />
  <g
     style="display:inline"
     id="layer1" />
  <path
     id="rect1021-6-7-2-1-9-8-3"
     d="M 79.2871,31.999999 C 57.5228,31.999999 40,49.520869 40,71.285159 V 432.71484 C 40,454.47913 57.5228,472 79.2871,472 H 440.7149 C 462.4791,472 480,454.47913 480,432.71484 V 71.285159 c 0,-21.76429 -17.5209,-39.28516 -39.2851,-39.28516 z m 262.7227,22.24024 c 10.243,0 19.0972,1.47634 26.5625,4.42773 7.4653,2.86458 14.3222,7.16146 20.5722,12.89062 L 374.1719,90.17774 c -5.1215,-4.94793 -10.1135,-8.67991 -14.9746,-11.19727 -4.7743,-2.60417 -10.5035,-3.90625 -17.1875,-3.90625 -26.3889,0 -41.2327,20.52886 -44.5313,61.58789 4.9479,-3.55903 11.1979,-6.77018 18.75,-9.63477 7.5521,-2.86458 15.7552,-4.29687 24.6094,-4.29687 16.5799,0 29.8171,4.6875 39.7129,14.0625 9.9826,9.28819 14.9746,23.61111 14.9746,42.96875 0,20.13889 -5.4247,35.54557 -16.2754,46.22266 C 368.3993,236.66146 353.3813,242 334.1973,242 c -21.7882,0 -37.7177,-7.63824 -47.7871,-22.91602 -10.0695,-15.36458 -15.1035,-37.89062 -15.1035,-67.57812 0,-30.90278 6.25,-54.81706 18.75,-71.74414 12.5,-17.013891 29.8177,-25.521481 51.9531,-25.521481 z m -7.291,89.583981 c -6.7709,0 -13.5858,1.21398 -20.4434,3.64453 -6.7708,2.34375 -12.4559,4.94792 -17.0566,7.8125 0,23.09028 3.0809,39.84505 9.2441,50.26172 6.25,10.41667 15.8414,15.625 28.7754,15.625 11.9792,0 20.9635,-3.47353 26.9531,-10.41797 6.0764,-6.94444 9.1153,-16.97049 9.1153,-30.07812 0,-24.56598 -12.1956,-36.84766 -36.5879,-36.84766 z M 89.6367,248.66992 c 5.5868,0.97547 8.4231,4.6542 8.5118,11.03907 l 20.7519,22.34765 c 9.2226,-4.966 17.9119,-7.80424 26.0703,-8.51367 l 5.0547,8.7793 c -8.9565,1.50753 -16.3601,4.43404 -22.2129,8.77929 l 32.1895,38.57618 32.457,-38.57618 c -5.8528,-4.34525 -13.3024,-7.27176 -22.3477,-8.77929 l 5.1875,-8.7793 c 8.0698,0.70943 16.6728,3.54767 25.8067,8.51367 l 20.8828,-22.34765 c 0.3547,-7.00562 3.6804,-10.68435 9.9766,-11.03907 3.8131,0.0887 7.0505,0.887 9.7109,2.39453 2.6604,1.50754 4.257,4.12316 4.7891,7.84766 -0.1774,5.67544 -3.0156,8.64607 -8.5137,8.91211 l -20.75,24.20898 c 8.2471,6.47355 13.4783,14.89804 15.6953,25.27344 H 220.791 c -2.3943,-5.32072 -6.9155,-10.59803 -13.5664,-15.83008 l -36.9804,40.4375 71.83,85.66407 4.3907,19.82031 -86.4629,-94.44336 -86.1953,94.44336 4.2578,-19.82031 71.9609,-85.66407 -36.9785,-40.4375 c -6.6509,5.23205 -11.174,10.50936 -13.5684,15.83008 H 87.2422 c 2.3056,-10.3754 7.581,-18.79989 15.8281,-25.27344 l -20.75,-24.20898 c -5.5867,-0.26604 -8.425,-3.77019 -8.5136,-10.50977 0.3547,-3.19243 2.172,-5.45302 5.4531,-6.7832 3.3698,-1.2415 6.8298,-1.86133 10.3769,-1.86133 z"
     style="fill:#000000;fill-opacity:1;stroke:none;stroke-width:15.71293163;stroke-linecap:round;stroke-linejoin:miter;stroke-miterlimit:4;stroke-dasharray:none;stroke-opacity:1;paint-order:normal" />
</svg>
