<?xml version="1.0" encoding="UTF-8" standalone="no"?>
<svg
   xmlns:dc="http://purl.org/dc/elements/1.1/"
   xmlns:cc="http://creativecommons.org/ns#"
   xmlns:rdf="http://www.w3.org/1999/02/22-rdf-syntax-ns#"
   xmlns:svg="http://www.w3.org/2000/svg"
   xmlns="http://www.w3.org/2000/svg"
   id="svg4"
   version="1.1"
   viewBox="0 0 512 512">
  <metadata
     id="metadata10">
    <rdf:RDF>
      <cc:Work
         rdf:about="">
        <dc:format>image/svg+xml</dc:format>
        <dc:type
           rdf:resource="http://purl.org/dc/dcmitype/StillImage" />
        <dc:title></dc:title>
      </cc:Work>
    </rdf:RDF>
  </metadata>
  <defs
     id="defs8" />
  <g
     style="display:inline"
     id="layer1" />
  <path
     id="rect1021-6-7-4-1-7"
     d="M 79.2852,32.00005 C 57.5209,32.00005 40,49.52092 40,71.28521 V 432.7129 C 40,454.4769 57.5209,472 79.2852,472 H 440.7148 C 462.4791,472 480,454.4771 480,432.7129 V 71.28521 C 480,49.52092 462.4791,32.00005 440.7148,32.00005 Z m 286.1523,22.23828 c 19.0104,0 33.5497,3.90625 43.6191,11.71875 10.0695,7.8125 15.1055,19.1847 15.1055,34.11522 0,6.25 -1.3021,11.8911 -3.9062,16.9258 -2.6042,4.9479 -6.0777,9.3329 -10.418,13.1523 -4.3403,3.8195 -11.2413,7.9421 -20.7031,12.3692 13.7152,5.9896 23.6551,12.8906 29.8183,20.7031 6.25,7.8125 9.375,17.3618 9.375,28.6465 0,16.8403 -5.6851,29.4264 -17.0566,37.7598 -11.3715,8.2465 -26.65,12.3691 -45.834,12.3691 -20.8333,0 -36.5885,-4.2528 -47.2656,-12.7598 -10.5903,-8.5937 -15.8848,-21.0497 -15.8848,-37.3691 0,-23.1771 12.9767,-39.6274 38.9317,-49.3496 -10.0697,-4.9479 -17.1448,-9.2007 -21.2247,-12.7598 -4.0798,-3.6458 -7.3771,-7.8565 -9.8945,-12.6308 -2.4305,-4.7744 -3.6465,-10.3733 -3.6465,-16.7969 0,-14.58335 4.992,-25.91148 14.9746,-33.98439 9.9827,-8.07292 24.6522,-12.10938 44.0098,-12.10938 z m 0,19.14063 c -12.2396,0 -21.1378,2.51801 -26.6934,7.55273 -5.4687,4.94792 -8.2031,11.24001 -8.2031,18.87891 0,4.6875 1.0857,8.6378 3.2559,11.8496 2.1701,3.125 5.5996,6.294 10.2871,9.5059 4.7743,3.2118 11.8917,7.0299 21.3535,11.457 10.8507,-4.4271 19.3142,-9.1146 25.3906,-14.0625 6.1632,-5.0347 9.2442,-11.0243 9.2442,-17.9688 0,-8.1597 -2.9067,-14.71219 -8.7227,-19.66011 -5.7292,-5.03472 -14.367,-7.55273 -25.9121,-7.55273 z m 0,79.03714 c -11.1111,4.6006 -19.0538,8.6792 -23.8281,12.2382 -4.7743,3.5591 -8.5504,7.5955 -11.3282,12.1094 -2.6909,4.5139 -4.0371,9.6361 -4.0371,15.3653 0,9.2013 3.1691,16.5792 9.5059,22.1347 6.4236,5.4688 16.3194,8.2031 29.6875,8.2031 13.5417,0 23.3934,-2.8205 29.5566,-8.4628 6.25,-5.7292 9.375,-13.107 9.375,-22.1348 0,-5.382 -1.2139,-10.1997 -3.6445,-14.4531 -2.4305,-4.2535 -6.1203,-8.2038 -11.0684,-11.8496 -4.8611,-3.6459 -12.934,-8.0289 -24.2187,-13.1504 z m -76.1992,94.539 c 5.5867,0.9755 8.425,4.6562 8.5137,11.041 l 20.75,22.3477 c 9.2225,-4.966 17.9138,-7.8042 26.0722,-8.5137 l 5.0547,8.7793 c -8.9565,1.5076 -16.362,4.4341 -22.2148,8.7793 l 32.1914,38.5742 32.455,-38.5742 c -5.8527,-4.3452 -13.3004,-7.2717 -22.3457,-8.7793 l 5.1875,-8.7793 c 8.0698,0.7095 16.6708,3.5477 25.8047,8.5137 l 20.8848,-22.3477 c 0.3547,-7.0056 3.6804,-10.6863 9.9766,-11.041 3.8131,0.089 7.0486,0.887 9.7089,2.3946 2.6604,1.5075 4.257,4.1251 4.7891,7.8496 -0.1774,5.6754 -3.0156,8.646 -8.5137,8.9121 l -20.75,24.209 c 8.2472,6.4735 13.4784,14.898 15.6953,25.2734 h -12.1035 c -2.3943,-5.3207 -6.9174,-10.598 -13.5683,-15.8301 l -36.9785,40.4375 71.83,85.664 4.3887,19.8203 -86.4609,-94.4433 -86.1973,94.4433 4.2578,-19.8203 71.9629,-85.664 -36.9805,-40.4375 c -6.6509,5.2321 -11.172,10.5094 -13.5664,15.8301 h -12.2382 c 2.3056,-10.3754 7.5829,-18.7999 15.83,-25.2734 l -20.7519,-24.209 c -5.5868,-0.2661 -8.425,-3.7702 -8.5137,-10.5098 0.3547,-3.1924 2.174,-5.453 5.4551,-6.7832 3.3698,-1.2415 6.8278,-1.8633 10.375,-1.8633 z M 89.6367,248.668 c 5.5868,0.9755 8.4231,4.6562 8.5117,11.041 l 20.752,22.3457 c 9.2226,-4.966 17.9119,-7.8023 26.0703,-8.5117 l 5.0547,8.7793 c -8.9566,1.5075 -16.3601,4.4341 -22.2129,8.7793 l 32.1895,38.5742 32.457,-38.5742 c -5.8528,-4.3452 -13.3024,-7.2717 -22.3477,-8.7793 l 5.1875,-8.7793 c 8.0698,0.7094 16.6728,3.5457 25.8067,8.5117 l 20.8828,-22.3457 c 0.3547,-7.0056 3.6804,-10.6863 9.9765,-11.041 3.8132,0.089 7.0506,0.887 9.711,2.3945 2.6603,1.5076 4.257,4.1232 4.789,7.8477 -0.1773,5.6754 -3.0155,8.6461 -8.5136,8.9121 l -20.752,24.209 c 8.2471,6.4735 13.4803,14.898 15.6973,25.2734 H 220.791 c -2.3943,-5.3207 -6.9155,-10.5961 -13.5664,-15.8281 l -36.9805,40.4375 71.8301,85.664 4.3906,19.8183 -86.4628,-94.4432 -86.1954,94.4432 4.2559,-19.8183 71.9629,-85.664 -36.9785,-40.4375 c -6.6509,5.232 -11.1741,10.5074 -13.5684,15.8281 H 87.2422 c 2.3056,-10.3754 7.581,-18.7999 15.8281,-25.2734 l -20.75,-24.209 c -5.5867,-0.266 -8.425,-3.7682 -8.5137,-10.5078 0.3548,-3.1924 2.1721,-5.455 5.4532,-6.7852 3.3698,-1.2415 6.8298,-1.8613 10.3769,-1.8613 z"
     style="fill:#000000;fill-opacity:1;stroke:none;stroke-width:15.71293163;stroke-linecap:round;stroke-linejoin:miter;stroke-miterlimit:4;stroke-dasharray:none;stroke-opacity:1;paint-order:normal" />
</svg>
