<?xml version="1.0" encoding="UTF-8" standalone="no"?>
<svg
   xmlns:dc="http://purl.org/dc/elements/1.1/"
   xmlns:cc="http://creativecommons.org/ns#"
   xmlns:rdf="http://www.w3.org/1999/02/22-rdf-syntax-ns#"
   xmlns:svg="http://www.w3.org/2000/svg"
   xmlns="http://www.w3.org/2000/svg"
   xmlns:sodipodi="http://sodipodi.sourceforge.net/DTD/sodipodi-0.dtd"
   xmlns:inkscape="http://www.inkscape.org/namespaces/inkscape"
   viewBox="0 0 512 512"
   version="1.1"
   id="svg4"
   sodipodi:docname="swords-9.svg"
   inkscape:version="0.92.4 5da689c313, 2019-01-14">
  <metadata
     id="metadata10">
    <rdf:RDF>
      <cc:Work
         rdf:about="">
        <dc:format>image/svg+xml</dc:format>
        <dc:type
           rdf:resource="http://purl.org/dc/dcmitype/StillImage" />
        <dc:title></dc:title>
      </cc:Work>
    </rdf:RDF>
  </metadata>
  <defs
     id="defs8" />
  <sodipodi:namedview
     pagecolor="#ffffff"
     bordercolor="#666666"
     borderopacity="1"
     objecttolerance="10"
     gridtolerance="10"
     guidetolerance="10"
     inkscape:pageopacity="0"
     inkscape:pageshadow="2"
     inkscape:window-width="2556"
     inkscape:window-height="1037"
     id="namedview6"
     showgrid="false"
     inkscape:zoom="0.1767767"
     inkscape:cx="-524.03245"
     inkscape:cy="-621.75871"
     inkscape:window-x="0"
     inkscape:window-y="841"
     inkscape:window-maximized="0"
     inkscape:current-layer="svg4"
     inkscape:pagecheckerboard="true" />
  <g
     inkscape:groupmode="layer"
     id="layer1"
     inkscape:label="Layer 1"
     style="display:inline" />
  <path
     inkscape:connector-curvature="0"
     style="fill:#000000;fill-opacity:1;stroke:none;stroke-width:15.71293163;stroke-linecap:round;stroke-linejoin:miter;stroke-miterlimit:4;stroke-dasharray:none;stroke-opacity:1;paint-order:normal"
     d="M 79.2871,32 C 57.5229,32 40,49.5228 40,71.2871 V 432.7148 C 40,454.4791 57.5229,472 79.2871,472 H 440.7149 C 462.4792,472 480,454.4791 480,432.7148 V 71.2871 C 480,49.5228 462.4792,32 440.7149,32 Z m 283.8067,22.2402 c 22.5694,0 38.7593,7.508 48.5683,22.5254 9.8959,15.0174 14.8438,36.7622 14.8438,65.2344 0,21.441 -2.6482,39.5399 -7.9434,54.2969 -5.2951,14.6701 -13.2799,25.9561 -23.957,33.8554 C 383.9284,238.0516 370.6471,242 354.7618,242 334.97,242 318.7802,236.1406 306.1934,224.4219 l 14.7129,-18.4883 c 5.1215,5.0347 10.3298,8.8528 15.625,11.457 5.3819,2.5174 11.4596,3.7774 18.2305,3.7774 13.7152,0 24.3042,-4.9059 31.7695,-14.7149 7.4653,-9.8958 12.0666,-25.5208 13.8027,-46.875 -5.1215,3.559 -11.4577,6.7721 -19.0098,9.6367 -7.5518,2.7778 -15.625,4.166 -24.2187,4.166 -16.6667,0 -29.992,-4.6013 -39.9746,-13.8027 -9.8958,-9.2882 -14.8438,-23.6973 -14.8438,-43.2285 0,-19.8785 5.3826,-35.199 16.1465,-45.9629 10.8507,-10.7639 25.7366,-16.1465 44.6602,-16.1465 z m 0,20.834 c -11.9792,0 -21.1359,3.5156 -27.4727,10.5469 -6.25,6.9444 -9.375,16.9264 -9.375,29.9472 0,24.566 12.2817,36.8497 36.8477,36.8497 6.684,0 13.4548,-1.216 20.3125,-3.6465 6.8576,-2.4306 12.5868,-5.0788 17.1875,-7.9434 0,-16.4062 -1.258,-28.9062 -3.7754,-37.5 -2.4306,-8.5937 -6.3368,-15.4507 -11.7188,-20.5723 -5.2951,-5.1215 -12.6308,-7.6816 -22.0058,-7.6816 z M 289.2383,246.957 c 5.5868,0.9755 8.425,4.6562 8.5137,11.041 l 20.75,22.3477 c 9.2226,-4.966 17.9138,-7.8043 26.0722,-8.5137 l 5.0547,8.7793 c -8.9565,1.5076 -16.3601,4.4341 -22.2129,8.7793 l 32.1895,38.5742 32.457,-38.5742 c -5.8528,-4.3452 -13.3024,-7.2717 -22.3476,-8.7793 l 5.1875,-8.7793 c 8.0697,0.7094 16.6727,3.5477 25.8066,8.5137 l 20.8828,-22.3477 c 0.3547,-7.0056 3.6804,-10.6863 9.9766,-11.041 3.8132,0.089 7.0506,0.887 9.7109,2.3945 2.6604,1.5076 4.2551,4.1232 4.7871,7.8477 -0.1773,5.6754 -3.0136,8.6461 -8.5117,8.9121 l -20.7519,24.2109 c 8.2471,6.4736 13.4803,14.8981 15.6972,25.2735 h -12.1054 c -2.3944,-5.3207 -6.9175,-10.598 -13.5684,-15.8301 l -36.9785,40.4375 71.8301,85.6641 4.3886,19.8183 -86.4609,-94.4414 -86.1953,94.4414 4.2558,-19.8183 71.9629,-85.6641 -36.9785,-40.4375 c -6.6509,5.2321 -11.174,10.5094 -13.5683,15.8301 h -12.2383 c 2.3056,-10.3754 7.5829,-18.7999 15.8301,-25.2735 l -20.75,-24.2109 c -5.5868,-0.266 -8.425,-3.7682 -8.5137,-10.5078 0.3547,-3.1924 2.172,-5.453 5.4531,-6.7832 3.3698,-1.2415 6.8279,-1.8633 10.375,-1.8633 z m -199.6015,1.7129 c 5.5866,0.9755 8.4249,4.6562 8.5136,11.041 l 20.75,22.3457 c 9.2226,-4.966 17.9138,-7.8042 26.0723,-8.5136 l 5.0547,8.7792 c -8.9566,1.5077 -16.3621,4.4341 -22.2149,8.7793 l 32.1914,38.5762 32.4551,-38.5762 c -5.8528,-4.3452 -13.3005,-7.2717 -22.3457,-8.7793 l 5.1875,-8.7792 c 8.0698,0.7094 16.6708,3.5476 25.8047,8.5136 l 20.8848,-22.3457 c 0.3547,-7.0056 3.6803,-10.6863 9.9765,-11.041 3.8132,0.089 7.0487,0.887 9.709,2.3945 2.6604,1.5076 4.257,4.1232 4.7891,7.8477 -0.1774,5.6754 -3.0156,8.6461 -8.5137,8.9121 l -20.75,24.209 c 8.2471,6.4735 13.4783,14.898 15.6953,25.2734 H 220.793 c -2.3943,-5.3207 -6.9175,-10.5961 -13.5684,-15.8281 l -36.9785,40.4375 71.8301,85.6621 4.3887,19.8203 -86.461,-94.4433 -86.1972,94.4433 4.2578,-19.8203 71.9629,-85.6621 -36.9805,-40.4375 c -6.6509,5.232 -11.1721,10.5074 -13.5664,15.8281 H 87.2422 c 2.3057,-10.3754 7.583,-18.7999 15.8301,-25.2734 l -20.752,-24.209 c -5.5867,-0.266 -8.4249,-3.7682 -8.5136,-10.5078 0.3547,-3.1924 2.1739,-5.455 5.4551,-6.7852 3.3696,-1.2415 6.8278,-1.8613 10.375,-1.8613 z"
     id="rect1021-6-7-4-1-90-4-5" />
</svg>
