<?xml version="1.0" encoding="UTF-8" standalone="no"?>
<svg
   xmlns:dc="http://purl.org/dc/elements/1.1/"
   xmlns:cc="http://creativecommons.org/ns#"
   xmlns:rdf="http://www.w3.org/1999/02/22-rdf-syntax-ns#"
   xmlns:svg="http://www.w3.org/2000/svg"
   xmlns="http://www.w3.org/2000/svg"
   xmlns:sodipodi="http://sodipodi.sourceforge.net/DTD/sodipodi-0.dtd"
   xmlns:inkscape="http://www.inkscape.org/namespaces/inkscape"
   id="svg4"
   version="1.1"
   viewBox="0 0 512 512"
   sodipodi:docname="swords-1.svg"
   inkscape:version="0.92.4 5da689c313, 2019-01-14">
  <sodipodi:namedview
     pagecolor="#ffffff"
     bordercolor="#666666"
     borderopacity="1"
     objecttolerance="10"
     gridtolerance="10"
     guidetolerance="10"
     inkscape:pageopacity="0"
     inkscape:pageshadow="2"
     inkscape:window-width="2556"
     inkscape:window-height="1037"
     id="namedview31"
     showgrid="false"
     inkscape:zoom="0.4609375"
     inkscape:cx="-295.05085"
     inkscape:cy="256"
     inkscape:window-x="0"
     inkscape:window-y="841"
     inkscape:window-maximized="0"
     inkscape:current-layer="svg4" />
  <metadata
     id="metadata10">
    <rdf:RDF>
      <cc:Work
         rdf:about="">
        <dc:format>image/svg+xml</dc:format>
        <dc:type
           rdf:resource="http://purl.org/dc/dcmitype/StillImage" />
        <dc:title />
      </cc:Work>
    </rdf:RDF>
  </metadata>
  <defs
     id="defs8" />
  <flowRoot
     style="fill:black;fill-opacity:1;stroke:none;font-family:sans-serif;font-style:normal;font-weight:normal;font-size:40px;line-height:1.25;letter-spacing:0px;word-spacing:0px"
     id="flowRoot4540"
     xml:space="preserve"><flowRegion
       id="flowRegion4542"><rect
         y="121.49152"
         x="-214.77966"
         height="114.98305"
         width="112.81356"
         id="rect4544" /></flowRegion><flowPara
       id="flowPara4546" /></flowRoot>  <flowRoot
     style="fill:black;fill-opacity:1;stroke:none;font-family:sans-serif;font-style:normal;font-weight:normal;font-size:40px;line-height:1.25;letter-spacing:0px;word-spacing:0px"
     id="flowRoot4552"
     xml:space="preserve"><flowRegion
       id="flowRegion4554"><rect
         y="182.23729"
         x="-368.81357"
         height="177.8983"
         width="171.38983"
         id="rect4556" /></flowRegion><flowPara
       id="flowPara4558" /></flowRoot>  <flowRoot
     style="fill:black;fill-opacity:1;stroke:none;font-family:sans-serif;font-style:normal;font-weight:normal;font-size:40px;line-height:1.25;letter-spacing:0px;word-spacing:0px"
     id="flowRoot4560"
     xml:space="preserve"><flowRegion
       id="flowRegion4562"><rect
         y="177.8983"
         x="-475.11865"
         height="203.93221"
         width="277.69492"
         id="rect4564" /></flowRegion><flowPara
       id="flowPara4566" /></flowRoot>  <g
     style="display:inline"
     id="layer1" />
  <flowRoot
     style="fill:black;fill-opacity:1;stroke:none;font-family:sans-serif;font-style:normal;font-weight:normal;font-size:40px;line-height:1.25;letter-spacing:0px;word-spacing:0px"
     id="flowRoot828"
     xml:space="preserve"><flowRegion
       id="flowRegion830"><rect
         y="-6.5084743"
         x="-497.89832"
         height="321.08475"
         width="375.32202"
         id="rect832" /></flowRegion><flowPara
       id="flowPara834" /></flowRoot>  <text
     id="text949"
     y="-83.525421"
     x="-600.94916"
     style="font-style:normal;font-weight:normal;font-size:533.33331299px;line-height:1.25;font-family:sans-serif;letter-spacing:0px;word-spacing:0px;fill:#000000;fill-opacity:1;stroke:none"
     xml:space="preserve"><tspan
       y="370.90164"
       x="-600.94916"
       id="tspan947" /></text>
  <path
     id="rect1021"
     d="M 75.285156 36 C 53.520873 36 36 53.520873 36 75.285156 L 36 436.71484 C 36 458.47913 53.520873 476 75.285156 476 L 436.71484 476 C 458.47913 476 476 458.47913 476 436.71484 L 476 75.285156 C 476 53.520873 458.47913 36 436.71484 36 L 75.285156 36 z M 117.97852 61.46875 C 128.91602 63.378472 134.47287 70.583985 134.64648 83.083984 L 175.27148 126.83398 C 193.32704 117.11176 210.34028 111.5549 226.3125 110.16602 L 236.20898 127.35352 C 218.67426 130.3049 204.17708 136.03407 192.71875 144.54102 L 255.74023 220.0625 L 319.28125 144.54102 C 307.82292 136.03407 293.23958 130.3049 275.53125 127.35352 L 285.6875 110.16602 C 301.48611 111.5549 318.32704 117.11176 336.20898 126.83398 L 377.09375 83.083984 C 377.78819 69.368707 384.29861 62.163194 396.625 61.46875 C 404.09028 61.642361 410.42643 63.204861 415.63477 66.15625 C 420.8431 69.107639 423.9681 74.229818 425.00977 81.521484 C 424.66254 92.632595 419.10764 98.447917 408.34375 98.96875 L 367.71875 146.36523 C 383.86458 159.03885 394.10699 175.53125 398.44727 195.84375 L 374.75 195.84375 C 370.0625 185.42708 361.20833 175.09657 348.1875 164.85352 L 275.79102 244.02148 L 416.41602 411.72852 L 425.00977 450.53125 L 255.74023 265.63477 L 86.990234 450.53125 L 95.322266 411.72852 L 236.20898 244.02148 L 163.8125 164.85352 C 150.79167 175.09657 141.9375 185.42708 137.25 195.84375 L 113.29102 195.84375 C 117.8049 175.53125 128.13542 159.03885 144.28125 146.36523 L 103.65625 98.96875 C 92.71875 98.447917 87.163845 91.590928 86.990234 78.396484 C 87.684679 72.146485 91.242405 67.719401 97.666016 65.115234 C 104.26324 62.684679 111.03407 61.46875 117.97852 61.46875 z "
     style="fill:#000000;fill-opacity:1;stroke:none;stroke-width:15.71293163;stroke-linecap:round;stroke-linejoin:miter;stroke-miterlimit:4;stroke-dasharray:none;stroke-opacity:1;paint-order:normal" />
</svg>
