<?xml version="1.0" encoding="UTF-8" standalone="no"?>
<svg
   xmlns:dc="http://purl.org/dc/elements/1.1/"
   xmlns:cc="http://creativecommons.org/ns#"
   xmlns:rdf="http://www.w3.org/1999/02/22-rdf-syntax-ns#"
   xmlns:svg="http://www.w3.org/2000/svg"
   xmlns="http://www.w3.org/2000/svg"
   id="svg4"
   version="1.1"
   viewBox="0 0 512 512">
  <metadata
     id="metadata10">
    <rdf:RDF>
      <cc:Work
         rdf:about="">
        <dc:format>image/svg+xml</dc:format>
        <dc:type
           rdf:resource="http://purl.org/dc/dcmitype/StillImage" />
        <dc:title></dc:title>
      </cc:Work>
    </rdf:RDF>
  </metadata>
  <defs
     id="defs8" />
  <g
     style="display:inline"
     id="layer1" />
  <path
     id="rect1021-6-7-2-0-6"
     d="M 79.2851,32.000002 C 57.5209,32.000002 40,49.520872 40,71.285152 V 432.71289 C 40,454.47717 57.5209,472 79.2851,472 H 440.7148 C 462.4791,472 480,454.47717 480,432.71289 V 71.285152 c 0,-21.76428 -17.5209,-39.28515 -39.2852,-39.28515 z m 194.1036,26.01562 h 125.9121 v 22.39453 l -68.75,157.812498 H 303.8574 L 375.082,79.759762 H 273.3887 Z M 89.6348,248.66797 c 5.5867,0.97546 8.4249,4.65615 8.5136,11.04101 l 20.75,22.34766 c 9.2226,-4.96601 17.9139,-7.80424 26.0723,-8.51367 l 5.0547,8.77929 c -8.9566,1.50754 -16.3601,4.43404 -22.2129,8.7793 l 32.1894,38.57422 32.4571,-38.57422 c -5.8528,-4.34526 -13.3025,-7.27176 -22.3477,-8.7793 l 5.1875,-8.77929 c 8.0698,0.70943 16.6728,3.54766 25.8067,8.51367 l 20.8828,-22.34766 c 0.3547,-7.00561 3.6803,-10.6863 9.9765,-11.04101 3.8132,0.0887 7.0506,0.88699 9.711,2.39453 2.6603,1.50754 4.255,4.12315 4.7871,7.84765 -0.1774,5.67544 -3.0137,8.64608 -8.5117,8.91211 l -20.752,24.20899 c 8.2471,6.47354 13.4803,14.89803 15.6973,25.27344 H 220.791 c -2.3943,-5.32073 -6.9175,-10.59609 -13.5684,-15.82813 l -36.9785,40.4375 71.8301,85.66406 4.3887,19.81836 -86.461,-94.4414 -86.1953,94.4414 4.2559,-19.81836 71.9629,-85.66406 -36.9785,-40.4375 c -6.6509,5.23204 -11.1741,10.5074 -13.5684,15.82813 H 87.2402 c 2.3057,-10.37541 7.583,-18.7999 15.8301,-25.27344 l -20.75,-24.20899 c -5.5868,-0.26603 -8.425,-3.76823 -8.5137,-10.50781 0.3547,-3.19243 2.172,-5.45302 5.4532,-6.7832 3.3697,-1.2415 6.8278,-1.86328 10.375,-1.86328 z"
     style="fill:#000000;fill-opacity:1;stroke:none;stroke-width:15.71293163;stroke-linecap:round;stroke-linejoin:miter;stroke-miterlimit:4;stroke-dasharray:none;stroke-opacity:1;paint-order:normal" />
</svg>
