<svg version="1" xmlns="http://www.w3.org/2000/svg" width="933.333" height="933.333" viewBox="0 0 700.000000 700.000000"><path d="M312.5 3.5c-30.5 3.4-56.9 9.7-87.9 21.2l-14.9 5.5-12.6-3.6c-6.9-1.9-16.9-4.3-22.1-5.2-12.7-2.3-35.6-2.3-47.2 0-46 8.9-82.2 41.8-93.1 84.6-1.8 7-2.1 11.2-2.1 23.5.1 17 2.3 27.7 8.8 42.6l3.4 8-6.9 14.6c-20.2 42.4-31 81-35 124.5-1.5 16.7-.6 61.4 1.5 76.6 8 56 26.9 104.8 59.6 153.7l6.7 10 .6 15c2.6 65.5 31.1 109.8 79.7 123.6 5.8 1.7 10.4 1.9 44.5 1.9 41.2 0 44.7-.4 69.2-7.2 8-2.2 8.3-2.2 16.7-.6 6.1 1.2 9.9 2.6 13 4.7l4.5 3.1H646.2l7.7-4c14.1-7.4 25.2-18.7 32.6-33.5 6-12 8.6-22.3 8.6-35 0-24.4-9.6-36.8-33.6-43.5-14.1-3.9-16.4-6-18.4-16.5-1.1-6.1-3.1-11.2-6.2-15.6-.9-1.2 0-3.4 4.8-11 29.8-47.4 46.2-91.8 54-145.9 2.5-17.8 2.6-72 0-89.8-7-49.2-22.1-92.6-47.1-135-4.2-7.1-7.6-13.2-7.6-13.7 0-.4 2.4-3.4 5.4-6.6 11.3-12.2 12-27.8 2.4-51.4-10-24.4-28.7-45-51.8-56.9-24.7-12.8-48.9-16.1-85.9-11.6l-16.4 2-15.6-5.9c-33.5-12.7-60.2-19.2-92.8-22.6-17-1.8-57.1-1.8-73.8 0zM160.5 40c13.8 1.3 28.7 4.8 41.8 9.9 11.4 4.5 15.5 5 55.7 7.3 29.5 1.7 141.3 1.7 173.5 0 42.7-2.2 79.9-5.6 96.7-8.7 6.2-1.2 10-1.2 18.9-.4 44.1 4.1 73.1 26.4 86.3 66.4 2.6 8.1 5.8 22.6 5.1 23.4-.3.2-15.8 3-34.5 6.1-18.8 3.2-34.8 6.1-35.6 6.4-1.7.7-1.9 2.6-.2 2.6.7 0 13.5 7.3 28.5 16.2 19.8 11.9 26.8 16.5 25.5 17-.9.4-12.3 2.6-25.2 4.8-12.9 2.3-23.6 4.3-23.8 4.5-.1.1 12.6 8 28.2 17.4 15.7 9.5 28.8 17.6 29 18 1.4 2.2-13.2 40.7-22.1 58.6-13 25.9-25 43.7-45.8 68-24.6 28.7-37.2 48.2-48.8 75.5-11.9 28-19.7 63.4-19.7 89.2v8.7l-127.2.3-127.3.3-8 2.3c-42.5 12.3-64.1 56.1-45.8 93 9.3 18.9 32 32.6 50.8 30.8 3.3-.4 16.6-.9 29.5-1.1l23.5-.5-4 3.5c-11.9 10.4-37.3 18.6-66.9 21.4-16.9 1.7-47.2 1.4-56.3-.5-16-3.3-26.9-8.7-37.9-18.8-39.1-35.6-44-117.6-12.7-210.9 3.6-10.6 5.2-14.1 6.7-14.7 1.2-.4 18.7-3.5 39.1-6.9 20.3-3.4 37.1-6.4 37.3-6.6.2-.2-10.4-11.4-23.7-24.9-22.7-23.1-24.1-24.7-23-26.8.7-1.3 5.6-9.3 10.9-17.8 25.8-41.4 43.2-73.3 56-102.5 4.5-10.4 12-29.7 12-31 0-.3-17.7-.5-39.3-.5-54.4 0-67.9-1.6-85.4-9.9-23.8-11.4-40.6-32.3-47.9-59.6-2.6-9.6-2.6-32.2-.1-41.5 6.4-23.2 26.3-46.2 50.2-58 13.5-6.7 22.6-9 43.5-10.9.8 0 6.5.4 12.5.9zm452 520.5c5 .8 11.5 2.2 14.5 3.1l5.5 1.7-29 14.2C580.2 591 575 593.9 577 594.3c1.4.3 22.8 2.9 47.5 5.7 24.8 2.8 46 5.5 47.1 6 1.8.7 2.4 2.3 3.4 8.2 2.5 14.4-.5 31.4-7.6 43.5-4.5 7.7-13.8 16.7-21.5 20.8-13 6.8-3.1 6.5-183.4 6.5h-163l6.8-6.1c7.9-7.1 14.6-16.2 18.6-25.1 12-26.7 8-67.3-9-89.6L312 559h145.8c123.3 0 147.1.2 154.7 1.5zm-348.4 1.1c17.8 5.3 32.7 19.4 36.8 34.9 1.8 6.8 3.3 22.6 2.6 27.1l-.6 4.3-31.7.6c-17.4.3-34.2.6-37.2.7-6.8.2-14.4-3.5-19.6-9.6-4.8-5.6-7.9-15.9-7-23.4 1.8-15.7 15.9-31.5 31.3-35.1 6.4-1.5 19.5-1.2 25.4.5z"/><path d="M138.2 63c-21.7 3-41.4 15.5-53.6 33.9-7.2 10.8-9.1 17.4-9 32.1 0 11 .3 13.4 2.8 20.5 3.7 10.7 10.2 21 18 28.2 7.4 7 13.3 10.5 23.6 14.1 6.4 2.2 9.3 2.6 19.5 2.6 13.7.1 19.5-1.3 23.7-5.4 8.9-9-2.4-37.9-29.7-76-4.7-6.5-8.5-12.1-8.5-12.4 0-.3 22.5-.6 50.1-.6h50l-1.8-3.1c-1-1.7-4.7-6.8-8.3-11.2-7.2-9.1-9.2-10.3-25.9-16.1-17-5.9-37.1-8.5-50.9-6.6z"/><path d="M170.5 127.2c5.4 8.8 12.4 23.6 15 31.8 3.4 10.7 4.4 25.1 2.2 32.2l-1.5 4.8h47.5l1.1-5.3c4.8-21.8 5.1-44.9 1-62.6l-1.1-5.1h-66.8l2.6 4.2z"/></svg>